HIERARCHY
ROOT Hips
{
  OFFSET 3.13124 94.3669 -3.18751
  CHANNELS  6 Xposition Yposition Zposition Zrotation Xrotation Yrotation
  JOINT LeftUpLeg
  {
    OFFSET 8.64259 1.95398 -2.38835
    CHANNELS 3 Zrotation Xrotation Yrotation
    JOINT LeftLeg
    {
      OFFSET 43.7702 0 0
      CHANNELS 3 Zrotation Xrotation Yrotation
      JOINT LeftFoot
      {
        OFFSET 40.6238 0 0
        CHANNELS 3 Zrotation Xrotation Yrotation
        JOINT LeftToeBase
        {
          OFFSET 12.7242 0 0
          CHANNELS 3 Zrotation Xrotation Yrotation
          End Site
          {
            OFFSET 0 0 0
          }
        }
      }
    }
  }
  JOINT RightUpLeg
  {
    OFFSET -8.2249 1.95398 -2.59336
    CHANNELS 3 Zrotation Xrotation Yrotation
    JOINT RightLeg
    {
      OFFSET 43.5653 0 0
      CHANNELS 3 Zrotation Xrotation Yrotation
      JOINT RightFoot
      {
        OFFSET 40.6238 0 0
        CHANNELS 3 Zrotation Xrotation Yrotation
        JOINT RightToeBase
        {
          OFFSET 12.7242 0 0
          CHANNELS 3 Zrotation Xrotation Yrotation
          End Site
          {
            OFFSET 0 0 0
          }
        }
      }
    }
  }
  JOINT Spine
  {
    OFFSET 0.165834 0.87714 6.61349
    CHANNELS 3 Zrotation Xrotation Yrotation
    JOINT Spine1
    {
      OFFSET 7.38962 1.71661e-005 0
      CHANNELS 3 Zrotation Xrotation Yrotation
      JOINT Spine2
      {
        OFFSET 11.9445 1.14441e-005 0
        CHANNELS 3 Zrotation Xrotation Yrotation
        JOINT Spine3
        {
          OFFSET 14.7254 4.19617e-005 0
          CHANNELS 3 Zrotation Xrotation Yrotation
          JOINT Spine4
          {
            OFFSET 10.9679 0 0
            CHANNELS 3 Zrotation Xrotation Yrotation
            JOINT RightShoulder
            {
              OFFSET 2.46616 -1.6653 3.69651
              CHANNELS 3 Zrotation Xrotation Yrotation
              JOINT RightArm
              {
                OFFSET 13.0012 0 0
                CHANNELS 3 Zrotation Xrotation Yrotation
                JOINT RightForeArm
                {
                  OFFSET 28.7848 1.52588e-005 0
                  CHANNELS 3 Zrotation Xrotation Yrotation
                  JOINT RightHand
                  {
                    OFFSET 26.5688 1.52588e-005 0
                    CHANNELS 3 Zrotation Xrotation Yrotation
                    End Site
                    {
                      OFFSET 0 0 0
                    }
                  }
                }
              }
            }
            JOINT LeftShoulder
            {
              OFFSET 2.38034 -1.29275 -3.75231
              CHANNELS 3 Zrotation Xrotation Yrotation
              JOINT LeftArm
              {
                OFFSET 16.3182 6.10352e-005 0
                CHANNELS 3 Zrotation Xrotation Yrotation
                JOINT LeftForeArm
                {
                  OFFSET 27.0901 0 0
                  CHANNELS 3 Zrotation Xrotation Yrotation
                  JOINT LeftHand
                  {
                    OFFSET 24.5451 1.52588e-005 0
                    CHANNELS 3 Zrotation Xrotation Yrotation
                    End Site
                    {
                      OFFSET 0 0 0
                    }
                  }
                }
              }
            }
            JOINT Neck
            {
              OFFSET 5.0226 -0.0266342 0
              CHANNELS 3 Zrotation Xrotation Yrotation
              JOINT Head
              {
                OFFSET 6.69363 2.86102e-005 0
                CHANNELS 3 Zrotation Xrotation Yrotation
                End Site
                {
                  OFFSET 0 0 0
                }
              }
            }
          }
        }
      }
    }
  }
}
MOTION
Frames:	15
Frame Time:	0.0333333
-0.91409 98.4962 -8.22982 40.7259 -89.9972 40.8311 -171.458 2.839 90.0704 -9.57781 8.1869 2.68278 63.7141 0.77096 0.37814 28.7808 6.1472e-006 7.56055e-007 -179.085 1.99321 91.9374 -7.74571 1.1194 0.0640192 62.8166 -1.08126 -0.540969 28.7808 1.53536e-005 3.18881e-005 0.00837628 6.33209 -90.1054 14.1935 -0.0138614 -1.69388e-006 2.52251 -0.0127988 -3.01018e-006 -20.0126 3.1897e-006 8.89021e-006 -0 0 3.10601e-018 100.789 -18.8295 -85.5675 -0.108962 35.7504 -24.5832 2.16466 0.120489 -8.3008 -5.37983 -0.320008 -0.0162412 -79.2571 -22.0122 93.7323 13.5267 -37.6427 -16.9076 2.23979 38.2888 -7.27193 -0.756482 -0.0175217 0.990554 1.7611 -0.00031793 -0.00466531 -7.40925 0.00110396 0.00874792 
-0.914857 98.5313 -8.22416 -25.3077 -89.9601 -25.1652 -171.459 2.79897 90.1074 -9.41491 8.14266 2.66698 63.5902 0.742385 0.362093 28.7808 6.1472e-006 7.56055e-007 -179.01 1.13564 91.9503 -5.90918 1.16239 0.0640202 61.9806 -0.914682 -0.427546 28.7808 1.53536e-005 3.18881e-005 0.011086 6.33146 -90.1382 14.1934 -0.0138614 -3.8844e-005 2.52247 -0.0127988 -4.16019e-005 -20.0127 4.36646e-005 -1.73458e-005 -3.22333e-005 4.0491e-005 -2.62571e-005 100.799 -18.8755 -85.5846 -0.147335 35.7867 -24.5414 2.14845 0.120499 -8.26806 -5.37983 -0.320008 -0.0162412 -79.2135 -21.9403 93.7762 13.4942 -37.6131 -16.9288 2.21675 38.2278 -7.2798 -0.756474 -0.0175215 1.03566 1.87815 -0.00645938 -0.0697199 -7.38544 0.0182844 0.137257 
-0.929771 98.4944 -8.21107 1.76941 -89.9371 1.8867 -171.468 2.84632 90.0804 -9.48844 8.18218 2.67976 63.7034 0.839569 0.418633 28.7808 6.1472e-006 7.56055e-007 -179.075 1.97714 91.9449 -7.59772 1.11955 0.0640193 62.7427 -1.06779 -0.530831 28.7808 1.53536e-005 3.18881e-005 0.00929732 6.33182 -90.1205 14.1941 -0.0138614 0.000754289 2.52317 -0.0127988 0.000777794 -20.012 -0.000826259 0.000539075 0.000659865 -0.000828097 0.000530491 100.835 -18.8458 -85.5419 -0.12583 35.7812 -24.5173 2.13945 0.1205 -8.26411 -5.37983 -0.320008 -0.0162412 -79.2233 -21.9298 93.7008 13.5674 -37.6472 -16.8963 2.25483 38.3507 -7.27737 -0.901829 -0.0175215 1.02747 1.97484 -0.0226853 -0.00503686 -7.40445 0.0293116 0.104516 
-0.939263 98.5268 -8.21117 -4.06003 -89.9079 -3.91213 -171.47 2.83146 90.114 -9.37755 8.15718 2.68048 63.5916 0.792015 0.391349 28.7808 6.1472e-006 7.56055e-007 -179.002 1.18774 91.9684 -5.90984 1.16819 0.0640203 61.969 -0.975162 -0.462352 28.7808 1.53536e-005 3.18881e-005 0.000983683 6.33167 -90.1375 14.2113 -0.0138614 0.0207691 2.54033 -0.0127988 0.0214914 -19.9948 -0.0224747 0.014695 0.0178219 -0.0224603 0.0146964 100.766 -18.9125 -85.6212 -0.179502 35.7338 -24.4345 2.18794 0.120485 -8.31364 -5.37983 -0.320008 -0.0162412 -79.2416 -21.7539 93.7466 13.55 -37.6514 -16.8611 2.26437 38.3516 -7.27477 -0.825736 -0.0175215 1.02483 1.98724 0.0134531 -0.13644 -7.43478 0.0282124 0.215152 
-0.964781 98.5353 -8.18304 -40.0711 -89.9488 -39.9068 -171.418 2.78446 90.1577 -9.42353 8.17223 2.67731 63.5926 0.759776 0.371611 28.7808 6.1472e-006 7.56055e-007 -178.972 1.09613 92.0128 -5.86231 1.23357 0.0640219 61.9364 -1.01919 -0.489266 28.7808 1.53536e-005 3.18881e-005 0.00355222 6.33401 -90.1254 14.206 -0.0138614 0.0171496 2.53502 -0.0127988 0.0175782 -20.0001 -0.0148965 0.0132945 0.0125084 -0.0148844 0.0133012 100.761 -18.9254 -85.6534 -0.237678 35.7154 -24.3427 2.21201 0.120481 -8.32556 -5.37983 -0.320008 -0.0162412 -79.2619 -21.707 93.6752 13.5894 -37.654 -16.8364 2.2813 38.2873 -7.34787 -0.839309 -0.0175206 1.18398 1.84214 0.0126649 -0.116957 -7.28532 0.0430886 0.0966765 
-0.972764 98.5153 -8.1766 -35.2582 -89.8692 -35.0781 -171.43 2.82328 90.1643 -9.37681 8.13348 2.67526 63.6556 0.842241 0.420931 28.7808 6.1472e-006 7.56055e-007 -178.972 1.17807 92.022 -5.89231 1.13288 0.0640195 61.9916 -0.945617 -0.446117 28.7808 1.53536e-005 3.18881e-005 0.0051823 6.31966 -90.1261 14.2347 -0.0138614 0.0160828 2.56373 -0.0127988 0.0163963 -19.9714 -0.0124393 0.013083 0.0412038 -0.0124278 0.0130904 100.746 -18.9601 -85.6649 -0.173131 35.7086 -24.3957 2.19262 0.120491 -8.29349 -5.37983 -0.320008 -0.0162412 -79.2627 -21.5463 93.6901 13.4718 -37.6413 -16.9143 2.33191 38.3083 -7.37488 -0.92099 -0.0175206 1.19007 1.79706 -0.018838 -0.235919 -7.37149 0.0101673 0.17048 
-0.985386 98.5302 -8.15844 -42.6373 -89.8861 -42.4611 -171.414 2.80112 90.1757 -9.40477 8.14779 2.67672 63.6237 0.756272 0.370568 28.7808 6.1472e-006 7.56055e-007 -178.975 1.25578 92.034 -6.12241 1.14771 0.0640199 62.0313 -1.0592 -0.513887 28.7808 1.53536e-005 3.18881e-005 0.00422043 6.31253 -90.1236 14.2489 -0.0138614 0.0157386 2.57795 -0.0127988 0.0159873 -19.9572 -0.0111403 0.0132097 0.0554451 -0.0111285 0.0132161 100.72 -18.9124 -85.7325 -0.228349 35.6942 -24.3032 2.21636 0.120483 -8.32102 -5.37983 -0.320008 -0.0162412 -79.3103 -21.5541 93.584 13.4917 -37.6668 -16.892 2.34874 38.3631 -7.36473 -0.940237 -0.0175203 1.22425 1.58272 -0.0170848 -0.153932 -7.24296 0.00229832 0.103348 
-0.989941 98.5326 -8.14469 -49.9232 -89.8536 -49.7469 -171.39 2.83091 90.1907 -9.46946 8.12691 2.66092 63.6585 0.805507 0.398182 28.7808 6.1472e-006 7.56055e-007 -178.953 1.07247 92.0337 -5.75552 1.12444 0.0640194 61.9809 -0.918774 -0.431555 28.7808 1.53536e-005 3.18881e-005 0.00280216 6.30873 -90.1116 14.2571 -0.0138614 0.0159373 2.58613 -0.0127988 0.0161772 -19.949 -0.010824 0.0134659 0.0636129 -0.0108113 0.0134703 100.723 -18.8921 -85.7323 -0.148466 35.7375 -24.4182 2.17756 0.120491 -8.29529 -5.37983 -0.320008 -0.0162412 -79.2801 -21.511 93.6433 13.3997 -37.6585 -16.9837 2.38903 38.4508 -7.36561 -0.996609 -0.0175209 1.1287 1.60339 -0.0177894 -0.16733 -7.3098 0.00261801 0.138982 
-0.991283 98.52 -8.1322 -38.2316 -89.8371 -38.0518 -171.426 2.799 90.1737 -9.35406 8.11222 2.66297 63.6647 0.889878 0.448949 28.7808 6.1472e-006 7.56055e-007 -178.971 1.20307 92.038 -5.95293 1.11876 0.0640192 61.9775 -1.05794 -0.511363 28.7808 1.53536e-005 3.18881e-005 0.00206798 6.30681 -90.1361 14.272 -0.0138748 0.0164994 2.6011 -0.0128239 0.0167918 -19.9341 -0.011315 0.0136429 0.0785993 -0.011301 0.0136456 100.725 -18.7816 -85.7307 -0.119511 35.6965 -24.4185 2.1915 0.120482 -8.3229 -5.37983 -0.320008 -0.0162412 -79.3023 -21.5877 93.6052 13.4402 -37.6499 -16.9665 2.41236 38.5172 -7.43562 -1.04433 -0.0175196 1.33311 1.60184 0.0110414 -0.0463405 -7.35772 0.015785 0.0527644 
-0.994374 98.5418 -8.1121 -54.8249 -89.8568 -54.6361 -171.383 2.7873 90.1993 -9.44592 8.12174 2.65674 63.6414 0.82538 0.40966 28.7808 6.1472e-006 7.56055e-007 -178.952 1.07425 92.0457 -5.81881 1.11376 0.0640191 61.9527 -1.00851 -0.483433 28.7808 1.53536e-005 3.18881e-005 0.00331294 6.30647 -90.1204 14.2701 -0.0138529 0.0172617 2.59917 -0.0129959 0.0176751 -19.936 -0.0124376 0.0135371 0.0766623 -0.0124224 0.0135394 100.737 -18.7518 -85.6994 -0.113411 35.6962 -24.4496 2.19866 0.120487 -8.30581 -5.37983 -0.320008 -0.0162412 -79.3236 -21.6043 93.5605 13.4061 -37.6397 -16.977 2.40656 38.5719 -7.4041 -1.0165 -0.01752 1.27123 1.58648 0.0130464 -0.0579654 -7.3424 0.017214 0.0971961 
-0.993197 98.5281 -8.10513 -36.0516 -89.8646 -35.8662 -171.408 2.78639 90.1842 -9.39788 8.16214 2.67325 63.6597 0.872502 0.438221 28.7808 6.1472e-006 7.56055e-007 -178.96 1.14154 92.0495 -5.91013 1.15683 0.0640201 61.9781 -1.08785 -0.52966 28.7808 1.53536e-005 3.18881e-005 0.000746722 6.30622 -90.1328 14.2715 -0.0138755 0.0186639 2.60051 -0.0132114 0.0193846 -19.9347 -0.0140165 0.0127539 0.0780011 -0.0140004 0.0127578 100.752 -18.6836 -85.6702 -0.0655834 35.7053 -24.4704 2.1695 0.120488 -8.3053 -5.37983 -0.320008 -0.0162412 -79.3262 -21.6507 93.5555 13.3903 -37.6137 -16.9909 2.37642 38.4635 -7.42516 -1.08973 -0.0175187 1.45482 1.6795 0.0166683 -0.0281923 -7.39601 0.0179705 0.0651754 
-1.0016 98.5256 -8.09338 -44.8794 -89.8553 -44.673 -171.376 2.77287 90.2074 -9.41424 8.23734 2.66817 63.6971 1.09014 0.562717 28.7808 6.1472e-006 7.56055e-007 -178.945 1.09506 92.0651 -5.85092 1.14911 0.0640199 62.0139 -0.965925 -0.458822 28.7808 1.53536e-005 3.18881e-005 0.00206267 6.3068 -90.1308 14.2736 -0.0146546 0.0150451 2.60267 -0.0141631 0.0158683 -19.9325 -0.0158761 0.00864654 0.080159 -0.0158599 0.00864853 100.76 -18.6492 -85.6552 -0.0775351 35.7073 -24.4741 2.18686 0.120494 -8.28458 -5.37983 -0.320008 -0.0162412 -79.3235 -21.6777 93.5614 13.381 -37.5932 -16.9542 2.3839 38.4113 -7.4531 -1.09957 -0.0175186 1.46869 1.73505 0.0331162 -0.0357781 -7.33667 0.0352636 0.0724127 
-1.0055 98.5272 -8.09175 -31.9851 -89.8731 -31.803 -171.389 2.79076 90.1898 -9.43192 8.14357 2.64957 63.6942 0.905783 0.457022 28.7808 6.1472e-006 7.56055e-007 -178.955 1.07779 92.0434 -5.82213 1.14588 0.0640198 62.027 -1.02885 -0.496543 28.7808 1.53536e-005 3.18881e-005 -0.0029423 6.30787 -90.126 14.2741 -0.0164049 0.00966252 2.60317 -0.0160465 0.0105052 -19.932 -0.0178409 0.00344315 0.0806586 -0.0178256 0.00344161 100.768 -18.6326 -85.6385 -0.0782364 35.7039 -24.4715 2.17572 0.120486 -8.31113 -5.37983 -0.320008 -0.0162412 -79.3255 -21.7482 93.5596 13.4194 -37.61 -16.9286 2.35983 38.431 -7.4038 -1.09907 -0.0175188 1.4332 1.84879 0.0193864 -0.00809624 -7.35555 0.0192097 0.0444666 
-1.01785 98.5345 -8.09126 -43.1276 -89.8497 -42.9085 -171.35 2.8033 90.2356 -9.45238 8.11345 2.63646 63.7056 0.887695 0.446289 28.7808 6.1472e-006 7.56055e-007 -178.927 1.05802 92.0832 -5.77035 1.15408 0.06402 61.9926 -0.964778 -0.458866 28.7808 1.53536e-005 3.18881e-005 -0.000174384 6.3092 -90.1229 14.2705 -0.0187605 0.00567181 2.59953 -0.0185122 0.00651922 -19.9356 -0.0197355 -0.000370211 0.0770104 -0.0197223 -0.000376099 100.763 -18.6661 -85.6502 -0.141636 35.7016 -24.4173 2.20277 0.120489 -8.30194 -5.37983 -0.320008 -0.0162412 -79.323 -21.723 93.5622 13.426 -37.5681 -16.8473 2.34923 38.3807 -7.4207 -1.11 -0.0175188 1.43635 1.93062 0.00630376 -0.0566327 -7.33171 0.0138856 0.0426327 
-1.02547 98.5808 -8.09115 -64.5351 -89.881 -64.3367 -171.329 2.80404 90.2364 -9.55882 8.1166 2.65003 63.5778 0.606125 0.27985 28.7808 6.1472e-006 7.56055e-007 -178.918 0.95584 92.0703 -5.67805 1.20913 0.0636568 61.8527 -0.991584 -0.473904 28.7808 1.53536e-005 3.18881e-005 -0.00213826 6.31107 -90.1003 14.2579 -0.021461 0.004804 2.58696 -0.0213321 0.00564788 -19.9482 -0.0213844 -0.00123139 0.0644536 -0.021375 -0.00124291 100.743 -18.7142 -85.6993 -0.241714 35.7096 -24.3202 2.23327 0.12049 -8.29807 -5.37983 -0.320008 -0.0162412 -79.3341 -21.7659 93.5374 13.4997 -37.5578 -16.7523 2.29918 38.2668 -7.45356 -1.00333 -0.0175167 1.69355 1.87227 0.00514249 -0.0437341 -7.14315 0.0138703 -0.0144225 
